<?xml version="1.0" encoding="UTF-8" standalone="no"?>
<!-- Created with Inkscape (http://www.inkscape.org/) -->

<svg
   version="1.1"
   id="svg1"
   width="1140.5106"
   height="519.93597"
   viewBox="0 0 1140.5106 519.93597"
   xmlns="http://www.w3.org/2000/svg"
   xmlns:svg="http://www.w3.org/2000/svg">
  <defs
     id="defs1" />
  <g
     id="g1"
     transform="translate(-450.97083,-758.13892)">
    <path
       fill="#2d3138"
       d="m 1557.9815,1276.1479 c 4.4,-0.7898 10.5892,-2.3405 13.7537,-3.446 8.417,-2.9404 19.7463,-9.1396 19.7463,-10.8048 0,-1.9121 -1.7113,-5.0366 -5.0991,-9.3104 -3.5505,-4.479 -9.9009,-15.765 -9.9009,-17.5961 0,-2.0438 -1.5303,-1.7562 -8.3773,1.5745 -13.5088,6.5713 -29.2173,8.0212 -38.2323,3.5288 -2.7513,-1.371 -6.203,-3.7459 -7.6704,-5.2776 l -2.6681,-2.7848 6.2241,-2.406 c 19.3746,-7.4895 33.6885,-17.8478 44.2736,-32.0388 9.9132,-13.2903 16.36,-34.1461 17.1934,-55.622 1.086,-27.9848 -4.2161,-47.8006 -18.4812,-69.0707 -13.0097,-19.3982 -41.1022,-33.9691 -69.359,-35.9748 -13.0013,-0.9229 -29.3818,1.2058 -41.3693,5.3761 -14.4835,5.0386 -18.0144,6.8601 -29.1408,15.0334 -15.6383,11.4875 -26.0932,28.2656 -32.5635,52.258 -3.059,11.3432 -3.3188,36.9076 -0.5077,49.9526 5.3908,25.0158 16.6498,44.5756 32.3235,56.1545 11.8857,8.7805 29.2846,16.3757 43.47,18.9762 l 6.615,1.2126 4.885,8.5649 c 10.2175,17.9143 24.7302,28.0276 45.385,31.6271 10.1585,1.7704 19.911,1.7946 29.5,0.073 z m -81.4377,-78.6517 c -8.4768,-2.1873 -17.8952,-7.8349 -23.8628,-14.3089 -14.3315,-15.5479 -19.631,-44.8398 -12.5827,-69.5483 5.3743,-18.8401 20.0766,-33.4268 37.9142,-37.6163 10.4825,-2.462 24.9114,-1.5703 33.6626,2.0803 14.9873,6.2521 27.1337,21.8353 31.4176,40.3072 2.1029,9.0672 2.5347,25.1915 0.9038,33.7504 -3.6414,19.1109 -14.6018,34.8282 -28.9792,41.5561 -12.5065,5.8526 -25.4945,7.1284 -38.4735,3.7795 z m -672.19143,38.8589 c 11.5483,-4.2796 19.6044,-9.308 27.4179,-17.1136 11.5581,-11.5464 17.617,-23.7953 19.6941,-39.8146 0.7359,-5.6758 0.9913,-45.3985 0.7992,-124.3402 l -0.2821,-116.00004 -7.5,7.9716 c -4.125,4.3844 -11.1158,11.8094 -15.5351,16.5 -4.4193,4.6907 -9.9318,10.6559 -12.25,13.2561 l -4.2149,4.7276 -0.01,98.77244 -0.01,98.7723 -2.3461,5.0381 c -3.0323,6.5117 -10.4087,13.0204 -16.962,14.9665 -4.3635,1.2959 -23.4583,1.4941 -143.10393,1.4856 l -138.0685,-0.01 -5,-2.3369 c -6.4318,-3.0061 -13.0486,-9.8706 -14.981,-15.5419 -1.332,-3.9103 -1.5185,-23.1563 -1.5185,-156.751 V 873.64376 l 2.3483,-5.3101 c 2.9973,-6.7775 10.1852,-13.234 16.9792,-15.2516 4.31,-1.2799 18.3183,-1.4954 97.2345,-1.4954 h 92.19913 l 17.6194,-18.0464 c 9.6907,-9.9255 17.6195,-18.7005 17.6195,-19.5 0,-1.2627 -14.551,-1.4536 -110.81643,-1.4536 -75.2458,0 -112.7209,0.3478 -116.75,1.0834 -19.7856,3.6125 -39.1612,17.607 -48.197,34.8113 -7.9001,15.042 -7.3912,3.4654 -7.6618,174.29094 -0.2564,161.8341 -0.2265,163.013 4.4335,174.8355 7.355,18.6597 25.7484,34.5837 46.1527,39.9565 7.1085,1.8718 11.8602,1.926 151.339,1.7274 l 144.00003,-0.205 z m 501.62913,0.1994 c 19.7869,-2.2333 36.5881,-9.2047 50.0545,-20.7693 10.0186,-8.6038 13.2364,-12.6392 18.5182,-23.224 5.2609,-10.5429 5.5842,-14.0137 1.4273,-15.322 -8.1942,-2.5791 -20.3001,-6.954 -28.977,-10.472 -5.4801,-2.2219 -6.523,-2.0639 -6.523,0.9885 0,3.4146 -5.9592,13.4857 -10.8738,18.3768 -6.2957,6.2657 -11.3801,9.0894 -20.6223,11.4532 -16.9558,4.3366 -33.0296,1.1261 -47.4836,-9.4841 -2.7611,-2.0269 -5.0203,-4.0493 -5.0203,-4.4943 0,-0.445 -1.288,-2.1879 -2.8622,-3.8731 -4.4966,-4.8136 -9.9122,-16.8126 -12.2529,-27.1475 -1.6462,-7.2691 -1.3148,-25.6317 0.6051,-33.5178 3.761,-15.4489 12.8803,-29.6612 23.3382,-36.372 14.7753,-9.4813 36.0975,-10.5154 52.0686,-2.5255 8.7313,4.3682 14.2101,9.995 18.8605,19.37 2.0585,4.1499 3.8471,7.7247 3.9748,7.944 0.1276,0.2193 5.5276,-1.4974 12,-3.815 6.4723,-2.3176 15.4804,-5.3848 20.0179,-6.816 4.5375,-1.4312 8.25,-2.9641 8.25,-3.4065 0,-1.8543 -5.3772,-12.764 -8.8032,-17.8605 -13.7261,-20.419 -36.3687,-34.285 -62.1383,-38.0526 -10.0539,-1.4699 -28.621,-0.7476 -38.0585,1.4806 -23.5154,5.5521 -46.622,21.0893 -58.0918,39.0617 -2.1094,3.3053 -4.2285,6.4747 -4.709,7.0432 -0.4806,0.5685 -1.1852,2.2744 -1.5658,3.7909 -0.4233,1.6867 -1.1289,2.4873 -1.8172,2.0619 -0.6624,-0.4094 -0.8485,-0.2476 -0.4524,0.3932 0.5885,0.9522 -0.057,3.2329 -3.3182,11.7204 -6.6493,17.3061 -6.8406,45.4545 -0.4585,67.4609 9.6684,33.3382 36.5559,57.4136 71.9129,64.3914 13.9503,2.7532 20.2067,3.0594 33,1.6155 z m -304.0652,-3.7625 c 0.3133,-0.987 0.4057,-29.5749 0.2053,-63.5287 -0.2004,-33.9537 -0.1868,-61.5566 0.03,-61.3396 0.9991,0.9991 24.3436,58.3184 33.8698,83.163 2.9525,7.7 7.836,20.3 10.8522,28 l 5.4842,14 4.3117,0.7009 c 2.3715,0.3856 8.8797,0.4396 14.4626,0.1202 l 10.1508,-0.5807 7.5609,-19.6202 c 4.1585,-10.7911 9.6238,-24.3381 12.1451,-30.1044 2.5213,-5.7663 6.1853,-14.7663 8.1422,-20 3.3977,-9.0872 11.9538,-30.1634 14.8238,-36.5158 0.7455,-1.65 3.0188,-7.05 5.0517,-12 2.033,-4.95 3.8804,-9.1964 4.1053,-9.4364 0.2249,-0.2401 0.2875,28.5599 0.1392,64 l -0.2698,64.4364 18.8704,0.2725 c 12.8545,0.1856 19.3014,-0.085 20.2224,-0.8495 1.1215,-0.9308 1.314,-17.4225 1.1296,-96.7725 l -0.2224,-95.6505 -26.114,-0.2663 c -20.1358,-0.2054 -26.3431,0.024 -27.1149,1 -0.5505,0.6964 -2.4397,5.0913 -4.1982,9.7663 -1.7585,4.675 -5.176,13.225 -7.5946,19 -2.4185,5.775 -10.3019,24.9 -17.5187,42.5 -7.2168,17.6 -13.5093,32.9 -13.9835,34 -0.4741,1.1 -1.9381,4.475 -3.2533,7.5 -1.3152,3.025 -3.2323,7.5735 -4.2604,10.1078 l -1.8691,4.6078 -2.1562,-4.654 c -1.1859,-2.5596 -5.8754,-14.3081 -10.4212,-26.1077 -4.5457,-11.7997 -11.2995,-28.8789 -15.0084,-37.9539 -15.6996,-38.4137 -20.2905,-49.7752 -22.0219,-54.5 l -1.8323,-5 h -26.82673 -26.8266 v 96.2128 c 0,95.4124 0.017,96.2161 2,96.6138 1.1,0.2206 9.9571,0.4623 19.6826,0.5372 16.1985,0.1248 17.73043,-0.014 18.25223,-1.6585 z M 622.23524,1111.5616 c 17.983,-7.1638 33.1392,-13.468 33.6805,-14.0093 0.6456,-0.6455 0.2952,-1.4667 -1.0183,-2.3867 -3.7041,-2.5945 -45.9118,-39.0311 -50.5952,-43.6774 -5.2748,-5.2329 -25.02,-21.0357 -25.5817,-20.474 -0.3665,0.3666 -1.6747,7.2828 -2.9071,15.3695 -1.2324,8.0866 -3.6044,23.478 -5.2711,34.203 -3.8119,24.5297 -3.8239,25.6168 -0.3132,28.3561 1.5113,1.1791 6.2776,5.1814 10.5918,8.8939 4.3142,3.7125 8.0406,6.75 8.2809,6.75 0.2403,0 15.1503,-5.8613 33.1334,-13.0251 z m 68.3007,-44.1787 c 9.00663,-9.5129 20.93933,-22.0212 26.51723,-27.7962 16.4915,-17.0744 52.7228,-55.27244 75.4066,-79.50004 5.1495,-5.5 13.9148,-14.725 19.4783,-20.5 19.4246,-20.1629 32.5433,-34.7203 32.5365,-36.1048 0,-0.7674 -1.6584,-2.5202 -3.6771,-3.8952 -2.0187,-1.375 -5.9234,-4.6375 -8.6771,-7.25 -2.7537,-2.6125 -5.3225,-4.75 -5.7085,-4.75 -0.8319,0 -87.2317,88.7976 -94.8672,97.5 -2.8954,3.30002 -8.0403,8.70002 -11.4332,12.00002 -9.3418,9.08622 -48.15683,49.75342 -57.58613,60.33402 -4.575,5.1337 -8.9315,9.5694 -9.6811,9.857 -2.5183,0.9664 -1.3982,2.7672 7.3897,11.8797 l 8.7475,9.0707 2.5894,-1.7745 c 1.4242,-0.976 9.9585,-9.5578 18.9651,-19.0707 z m -40.4894,-17.0462 c 4.964,-5.0875 11.4277,-11.95 14.3636,-15.25 2.9358,-3.3 11.4654,-12.3255 18.9546,-20.0566 7.4892,-7.7311 24.64173,-25.71592 38.11673,-39.96614 13.475,-14.2503 35.5548,-37.3998 49.0663,-51.4434 38.0727,-39.5722 42.373,-44.1141 43.2825,-45.7153 0.6317,-1.1121 -1.1586,-3.4072 -7,-8.9737 -4.3169,-4.1137 -9.2398,-8.8181 -10.9399,-10.4543 l -3.091,-2.9748 -15.3709,15.7921 c -8.4539,8.6857 -20.113,20.5273 -25.9089,26.3148 -5.796,5.7874 -13.7056,13.8874 -17.577,18 -37.22163,39.5402 -71.49723,75.02382 -101.07913,104.64154 l -18.1422,18.1643 9.6301,7.9828 c 5.2965,4.3906 10.721,9.1541 12.0544,10.5858 1.3333,1.4316 2.9172,2.6029 3.5197,2.6029 0.6025,0 5.157,-4.1625 10.1211,-9.25 z m -28.98,-37 c 8.2835,-8.3875 24.2467,-24.92502 35.4738,-36.75004 11.2271,-11.825 25.1625,-26.45 30.9675,-32.5 5.805,-6.05 13.71073,-14.375 17.56833,-18.5 3.8575,-4.125 18.6914,-19.65 32.9641,-34.5 14.2728,-14.85 28.0085,-29.25 30.5239,-32 19.8411,-21.6914 21.1332,-22.9532 22.8621,-22.3247 1.3921,0.506 28.9987,25.2116 34.2605,30.6601 8.6035,8.909 26.9935,25.6646 28.168,25.6646 0.6366,0 4.4998,-3.5186 8.5849,-7.8192 l 7.4274,-7.8191 -7.8792,-7.1809 c -9.2995,-8.4751 -54.569,-52.0173 -68.5463,-65.9308 -1.5194,-1.5125 -3.2026,-2.75 -3.7404,-2.75 -1.3448,0 -20.6146,19.1921 -45.6842,45.5 -11.5304,12.1 -33.8054,35.2638 -49.50003,51.4751 -34.5583,35.6961 -50.2872,52.101 -59.4721,62.028 -3.8151,4.1233 -16.7721,17.6994 -28.7934,30.16902 l -21.8568,22.67212 4.2934,3.0442 c 2.3613,1.6744 6.5434,5.0803 9.2934,7.5687 2.75,2.4885 5.6804,4.5286 6.5121,4.5337 0.8316,0 8.2895,-6.8533 16.573,-15.2408 z m 652.63336,-13.62782 c 22.7817,-6.6561 38.5198,-25.39692 44.3258,-52.78292 3.1373,-14.7985 1.7416,-41.8114 -2.6007,-50.3353 -0.4214,-0.8272 -1.5404,-3.6993 -2.4866,-6.3824 -5.031,-14.2659 -21.5531,-29.3955 -37.4569,-34.2999 -3.6862,-1.1368 -8.9627,-1.697 -16,-1.6989 -16.1708,0 -27.7314,4.6348 -39.2377,15.7453 l -4.7377,4.5747 -0.2623,-36.7214 -0.2623,-36.7214 h -19.2029 -19.203 l -0.2701,99 -0.2702,99.00002 17.0816,0.273 c 12.9248,0.2066 17.3135,-0.037 18.035,-1 0.5244,-0.7001 1.5278,-4.198 2.2298,-7.773 0.702,-3.57502 1.4678,-6.69372 1.7018,-6.93042 0.234,-0.2367 1.8818,1.1349 3.6617,3.048 6.6685,7.16742 16.6905,12.67142 27.1733,14.92344 6.0165,1.2925 20.1251,0.3181 27.7814,-1.91882 z m -39.6186,-32.59532 c -13.355,-5.4905 -19.5679,-16.822 -19.589,-35.7277 -0.013,-11.3428 1.3032,-18.4434 4.6486,-25.0851 5.9737,-11.8595 14.4924,-17.0619 27.8406,-17.0023 8.4663,0.038 13.7836,1.6113 17.6651,5.2274 1.2166,1.1334 2.5009,2.0608 2.8539,2.0608 1.3382,0 6.9865,8.9403 8.9145,14.1102 2.9171,7.8219 4.1182,20.4581 2.6235,27.5994 -3.2458,15.5066 -11.1601,25.5431 -23.0342,29.2107 -8.7566,2.7046 -14.6444,2.599 -21.923,-0.3934 z m 291.4953,33.01944 c 13.5982,-2.60212 27.1552,-8.99792 34.7471,-16.39264 5.4448,-5.3033 11.1701,-13.579 11.1381,-16.0995 -0.013,-1.0085 -5.0163,-3.9298 -14.25,-8.3199 -7.8267,-3.7211 -14.6803,-6.7505 -15.2303,-6.732 -0.55,0.019 -2.4798,2.2964 -4.2884,5.062 -6.1484,9.402 -16.683,13.6647 -31.3003,12.6656 -13.3632,-0.9133 -22.5002,-6.957 -28.8478,-19.0814 -1.6849,-3.2184 -3.0635,-7.0804 -3.0635,-8.5823 0,-2.6985 0.065,-2.7253 5.4981,-2.2748 3.024,0.2508 26.0192,0.1214 51.1003,-0.2875 l 45.6022,-0.7435 -0.4067,-16.1302 c -0.3979,-15.7795 -0.4882,-16.3427 -4.1521,-25.9067 -6.2921,-16.4246 -13.0606,-24.8742 -26.1418,-32.6345 -12.1939,-7.234 -18.7204,-9.1082 -34,-9.764 -13.8494,-0.5944 -19.7914,0.3311 -31.5,4.9063 -24.8772,9.7209 -40.1764,29.1483 -45.066,57.2263 -1.4732,8.4596 -0.704,25.9529 1.4968,34.0424 3.0219,11.1075 10.2046,24.1767 17.0486,31.0207 7.2372,7.23722 20.4109,14.24012 32.8216,17.44752 9.0595,2.34132 28.0974,2.62502 38.7941,0.57812 z m -50.5088,-88.16114 c 1.8053,-9.64 8.3741,-18.0386 17.4137,-22.2644 4.6422,-2.1701 6.9037,-2.5684 14.5,-2.5538 7.7434,0.015 9.6981,0.3824 14,2.632 2.75,1.438 6.2136,3.894 7.6968,5.4578 3.6235,3.8203 7.6599,11.5903 8.383,16.1371 l 0.5894,3.7061 -31.6553,0.3852 -31.6552,0.3852 z m -384.8132,70.1591 -0.2731,-17.4557 -43,-0.3952 -43,-0.3952 -0.2249,-78.3991 c -0.1237,-43.1195 -0.2362,-78.7366 -0.25,-79.1491 -0.014,-0.4125 -9.25013,-0.75 -20.52513,-0.75 h -20.5 l -0.028,4.25 c -0.8009,119.7234 -1.0084,187.21172 -0.5792,188.33022 0.4628,1.206 10.1911,1.4198 64.59933,1.4198 h 64.0544 z m 57.4323,-53.0443 -0.1257,-70 h -19.2898 -19.2899 v 69.5 c 0,38.225 0.145,69.84712 0.3222,70.27142 0.1772,0.4242 8.9142,0.6492 19.4155,0.5 l 19.0934,-0.2714 z m 233.0445,69.25002 c 0.2551,-0.6875 0.5407,-18.12502 0.6346,-38.75002 0.1856,-40.7832 0.4926,-43.4329 5.9663,-51.5 3.1997,-4.7158 10.7186,-10.0377 16.308,-11.5427 2.1855,-0.5885 8.0546,-1.2806 13.0424,-1.5381 4.9879,-0.2574 9.4581,-0.7086 9.9339,-1.0026 0.4757,-0.2941 0.8649,-9.0581 0.8649,-19.4756 v -18.941 h -6.2899 c -7.7538,0 -16.4736,2.1911 -22.2935,5.6017 -5.906,3.4612 -14.1043,10.9363 -16.2082,14.7784 l -1.7084,3.1199 -0.5,-10.5 -0.5,-10.5 -17.8144,0.1678 c -9.798,0.092 -18.3757,0.3831 -19.0617,0.6463 -0.9795,0.3759 -1.2109,13.1148 -1.0779,59.3323 0.093,32.3695 0.2334,63.9161 0.3117,70.10362 l 0.1423,11.25 h 18.893 c 14.2004,0 19.0082,-0.3105 19.3569,-1.25 z M 892.52547,853.00206 c 5.7508,-6.3716 11.806,-14.1059 13.456,-17.1874 2.622,-4.8968 3,-6.6186 3,-13.6654 0,-6.9335 -0.3724,-8.6927 -2.6589,-12.5626 -3.4184,-5.7857 -18.8809,-21.3884 -37.1832,-37.5206 -11.2542,-9.9198 -17.2923,-12.6459 -27.863,-12.58 -11.4449,0.071 -15.0049,2.0724 -29.0449,16.3253 -6.4625,6.5605 -11.75,12.7404 -11.75,13.7331 0,0.9927 1.6875,3.0795 3.75,4.6374 2.0625,1.5579 7.35,6.2523 11.75,10.432 4.4,4.1797 17.675,16.8158 29.5,28.0802 11.825,11.2645 23.4877,22.261 25.9173,24.4367 2.4295,2.1758 5.117,4.7434 5.9722,5.7059 0.8552,0.9625 2.2623,1.75 3.1267,1.75 0.8645,0 6.277,-5.2131 12.0278,-11.5846 z m 247.73013,-13.5481 c 5.4827,-2.6541 9.764,-8.4289 11.2625,-15.1911 1.0096,-4.5561 0.8977,-5.8351 -0.9342,-10.6762 -2.0272,-5.3569 -6.7625,-12 -8.5539,-12 -0.4901,0 -1.6922,-0.725 -2.6715,-1.6113 -2.7551,-2.4933 -13.8602,-3.0487 -19.314,-0.9659 -11.4356,4.3673 -18.2742,17.2186 -14.5071,27.2621 3.7323,9.9507 11.9022,15.3151 23.3247,15.3151 5.0891,0 8.1851,-0.5795 11.3935,-2.1327 z"
       id="path1" />
  </g>
</svg>
